 <!DOCTYPE svg PUBLIC "-//W3C//DTD SVG 1.1//EN" "http://www.w3.org/Graphics/SVG/1.1/DTD/svg11.dtd">
<svg id="b64a59df-3ed6-4f55-b5d2-8c50dea1c0c1" data-name="Layer 1" xmlns="http://www.w3.org/2000/svg" width="865.76" height="682.89" viewBox="0 0 865.76 682.89">
<defs>
<style xmlns="http://www.w3.org/1999/xhtml">*, ::after, ::before { box-sizing: border-box; }
img, svg { vertical-align: middle; }
</style>
<style xmlns="http://www.w3.org/1999/xhtml">*, body, html { -webkit-font-smoothing: antialiased; }
img, svg { max-width: 100%; }
</style>
</defs>
<g id="fbc6d2e6-a494-455c-9c8d-76d0bca1f405" data-name="freepik--background-simple--inject-6">
<path d="M684.41,123.79c-49.48-51.56-126.81-79-200-85.76a631.46,631.46,0,0,0-64.52-2.51c-212.4,2.08-274.61,86.08-261,126.53s51.91,65.34-3.34,121.34-117.55,140-85.9,224,162.69,149.34,352.5,139,313-11.4,352.51-89.15S727.81,426,715.63,359.38c-7.51-41.33,11.81-83,13.22-124.21C730.37,190.59,712.86,153.44,684.41,123.79Z" fill="#0071f2" data-primary="true"/>
<path d="M684.41,123.79c-49.48-51.56-126.81-79-200-85.76a631.46,631.46,0,0,0-64.52-2.51c-212.4,2.08-274.61,86.08-261,126.53s51.91,65.34-3.34,121.34-117.55,140-85.9,224,162.69,149.34,352.5,139,313-11.4,352.51-89.15S727.81,426,715.63,359.38c-7.51-41.33,11.81-83,13.22-124.21C730.37,190.59,712.86,153.44,684.41,123.79Z" fill="#fff" opacity="0.7" style="isolation:isolate"/>
</g>
<path d="M236.77,298.33c-5.6,20.23-6.36,32.79-6.36,54.78,0,132.43,108.51,239.78,242.37,239.78a243,243,0,0,0,166.51-65.54L471.54,358.42Z" fill="#0071f2" data-primary="true"/>
<path d="M649.63,517.07a237.91,237.91,0,0,0-.94-328.9L485.84,352.62Z" fill="#2f2e41" data-secondary="true"/>
<path d="M242.84,282.43c32.13-95.17,122.94-169.1,229.94-169.1a242.93,242.93,0,0,1,167.5,66.48L472.73,345.9Z" fill="#e6e7e8"/>
<path d="M667.71,274.32a1.47,1.47,0,0,1-1.1-.48,1.49,1.49,0,0,1,.09-2.11l44.35-40.57a1.52,1.52,0,0,1,1-.39h107.1a1.49,1.49,0,1,1,0,3H712.64l-43.92,40.18A1.51,1.51,0,0,1,667.71,274.32Z" fill="#d1d3d4"/>
<circle cx="531.49" cy="514.54" r="7.03" fill="#2f2e41" data-secondary="true"/>
<circle cx="665" cy="275.53" r="7.03" fill="#d1d3d4"/>
<circle cx="481.7" cy="141.56" r="7.03" fill="#2f2e41" data-secondary="true"/>
<rect x="530.34" y="49.87" width="175.51" height="112.98" rx="6.37" fill="#0071f2" data-primary="true"/>
<rect x="542.95" y="86.07" width="27.97" height="69.65" fill="#fff"/>
<rect x="584.09" y="63.04" width="29.07" height="92.69" fill="#2f2e41" data-secondary="true"/>
<rect x="624.75" y="113.33" width="29.07" height="42.39" fill="#d1d3d4"/>
<rect x="665" y="73.46" width="29.07" height="82.27" fill="#fff"/>
<path d="M750.33,200.94H738v6.49a5.63,5.63,0,0,1,2.27-1.61,8,8,0,0,1,3.15-.63,8.61,8.61,0,0,1,5,1.33,7.63,7.63,0,0,1,2.8,3.4,11.07,11.07,0,0,1,.88,4.42,9.85,9.85,0,0,1-2.49,7q-2.49,2.65-7.08,2.65a10.4,10.4,0,0,1-6.9-2.16,8.14,8.14,0,0,1-2.93-5.65h5.17a4,4,0,0,0,1.53,2.42,4.91,4.91,0,0,0,3.06.92,4.06,4.06,0,0,0,3.37-1.41,5.7,5.7,0,0,0,1.14-3.72,5,5,0,0,0-1.15-3.58,4.43,4.43,0,0,0-3.4-1.24,4.15,4.15,0,0,0-4.17,2.92h-5.09V196.27h17.15Z" fill="#0071f2" data-primary="true"/>
<path d="M758.51,199.54q2.37-3.72,7.88-3.72c3.66,0,6.29,1.24,7.87,3.72s2.37,5.9,2.37,10.28-.79,7.86-2.37,10.36-4.21,3.76-7.87,3.76-6.3-1.25-7.88-3.76-2.37-6-2.37-10.36S756.93,202,758.51,199.54ZM771,205.1a6.4,6.4,0,0,0-1.44-3.14,4.85,4.85,0,0,0-6.41,0,6.4,6.4,0,0,0-1.44,3.14,26,26,0,0,0-.36,4.72,28.56,28.56,0,0,0,.34,4.84,6.14,6.14,0,0,0,1.44,3.15,5,5,0,0,0,6.45,0,6,6,0,0,0,1.44-3.15,28.44,28.44,0,0,0,.35-4.84A26,26,0,0,0,771,205.1Z" fill="#0071f2" data-primary="true"/>
<path d="M781.7,198.62a6.94,6.94,0,1,1-1.69,4.52A6,6,0,0,1,781.7,198.62Zm2.22,4.52c0,2,.7,3,2.09,3a1.9,1.9,0,0,0,1.59-.74,3.69,3.69,0,0,0,.57-2.26c0-2-.72-3-2.16-3S783.92,201.17,783.92,203.14Zm20.46-5.69L789.46,224H784.3l14.88-26.56Zm-6,16.3a6,6,0,0,1,4.34-1.61,5.87,5.87,0,0,1,4.31,1.61,6,6,0,0,1,1.65,4.53,6.13,6.13,0,0,1-1.65,4.56,5.84,5.84,0,0,1-4.31,1.63,6,6,0,0,1-4.36-1.63,6.1,6.1,0,0,1-1.67-4.56A6,6,0,0,1,798.36,213.75Zm2.14,4.53c0,2,.73,3,2.17,3s2.12-1,2.12-3-.71-3-2.12-3S800.5,216.31,800.5,218.28Z" fill="#0071f2" data-primary="true"/>
<path d="M354.6,62.92a4,4,0,0,0-2.67-.8,4.17,4.17,0,0,0-3.86,2.11c-.82,1.4-1.24,3.69-1.27,6.85a6.22,6.22,0,0,1,2.66-2.37,8.5,8.5,0,0,1,3.79-.86,8.79,8.79,0,0,1,4.37,1.07,7.42,7.42,0,0,1,3,3.09,11.48,11.48,0,0,1,0,9.68A7.77,7.77,0,0,1,357.39,85a11.51,11.51,0,0,1-11.18-.57,9.15,9.15,0,0,1-3.15-4.88,28.74,28.74,0,0,1-.89-7.72q0-6.94,2.39-10.49c1.6-2.37,4.11-3.55,7.56-3.55a8.46,8.46,0,0,1,6.18,2.16,8.55,8.55,0,0,1,2.54,5.39h-4.93A4.36,4.36,0,0,0,354.6,62.92ZM348.66,73.4a4.25,4.25,0,0,0-1.36,3.41,4.44,4.44,0,0,0,4.85,4.82,4.3,4.3,0,0,0,3.25-1.25A4.68,4.68,0,0,0,356.59,77a5,5,0,0,0-1.15-3.49,4.35,4.35,0,0,0-3.4-1.29A5,5,0,0,0,348.66,73.4Z" fill="#0071f2" data-primary="true"/>
<path d="M368.19,61.59q2.37-3.72,7.87-3.72t7.88,3.72q2.37,3.72,2.37,10.29t-2.37,10.36c-1.58,2.5-4.21,3.76-7.88,3.76s-6.29-1.26-7.87-3.76-2.37-6-2.37-10.36S366.61,64.07,368.19,61.59Zm12.52,5.56A6.4,6.4,0,0,0,379.27,64a4.85,4.85,0,0,0-6.41,0,6.41,6.41,0,0,0-1.45,3.13,26.24,26.24,0,0,0-.36,4.73,29.73,29.73,0,0,0,.34,4.84,6.07,6.07,0,0,0,1.45,3.15,5,5,0,0,0,6.45,0,6.14,6.14,0,0,0,1.44-3.15,28.64,28.64,0,0,0,.34-4.84A26.24,26.24,0,0,0,380.71,67.15Z" fill="#0071f2" data-primary="true"/>
<path d="M400.37,60.68a6.93,6.93,0,1,1-1.69,4.52A6,6,0,0,1,400.37,60.68Zm2.22,4.52c0,2,.7,3,2.09,3a1.9,1.9,0,0,0,1.59-.74,3.71,3.71,0,0,0,.57-2.26c0-2-.72-3-2.16-3S402.59,63.22,402.59,65.2Zm20.46-5.69L408.13,86.07H403l14.88-26.56Zm-6,16.3a6,6,0,0,1,4.35-1.62,5.87,5.87,0,0,1,4.3,1.62,6,6,0,0,1,1.65,4.53,6.13,6.13,0,0,1-1.65,4.56,5.88,5.88,0,0,1-4.3,1.63A6,6,0,0,1,417,84.9a6.1,6.1,0,0,1-1.67-4.56A5.94,5.94,0,0,1,417,75.81Zm2.14,4.53c0,2,.73,3,2.17,3s2.12-1,2.12-3-.71-3-2.12-3S419.17,78.37,419.17,80.34Z" fill="#0071f2" data-primary="true"/>
<path d="M644.37,553.55l-10.09,23.64h-5.39l10.17-23h-13V549.6h18.29Z" fill="#0071f2" data-primary="true"/>
<path d="M666.12,554.12h-12.3v6.49A5.69,5.69,0,0,1,656.1,559a8,8,0,0,1,3.15-.63,8.57,8.57,0,0,1,5,1.33,7.71,7.71,0,0,1,2.81,3.4,11.28,11.28,0,0,1,.87,4.42,9.88,9.88,0,0,1-2.48,7q-2.49,2.65-7.08,2.65a10.41,10.41,0,0,1-6.91-2.16,8.13,8.13,0,0,1-2.92-5.65h5.16a4.1,4.1,0,0,0,1.54,2.43,4.91,4.91,0,0,0,3,.91,4.09,4.09,0,0,0,3.38-1.41,5.7,5.7,0,0,0,1.14-3.72,5,5,0,0,0-1.16-3.58,4.44,4.44,0,0,0-3.4-1.24,4.17,4.17,0,0,0-4.17,2.93H649V549.45h17.16Z" fill="#0071f2" data-primary="true"/>
<path d="M682,551.81a6.93,6.93,0,1,1-1.69,4.51A6,6,0,0,1,682,551.81Zm2.22,4.51c0,2,.7,3,2.09,3a1.9,1.9,0,0,0,1.59-.74,3.69,3.69,0,0,0,.57-2.26c0-2-.72-3-2.16-3S684.22,554.35,684.22,556.32Zm20.46-5.69-14.92,26.56H684.6l14.88-26.56Zm-6,16.3a6,6,0,0,1,4.35-1.61,5.86,5.86,0,0,1,4.3,1.61,6,6,0,0,1,1.65,4.53,6.13,6.13,0,0,1-1.65,4.56,5.84,5.84,0,0,1-4.3,1.63,6,6,0,0,1-4.37-1.63,6.1,6.1,0,0,1-1.67-4.56A6,6,0,0,1,698.66,566.93Zm2.14,4.53c0,2,.73,3,2.17,3s2.12-1,2.12-3-.71-3-2.12-3S700.8,569.49,700.8,571.46Z" fill="#0071f2" data-primary="true"/>
<path d="M518.39,280.05a35,35,0,0,0,0-21.51l-12.68-3.29c0,.14.07.28.11.42a42.06,42.06,0,0,0-1.76-4.58l7.08-11.65a35.11,35.11,0,0,0-15.22-15.22l-11.29,6.65c.14.07.27.15.4.23a43.53,43.53,0,0,0-4.51-2l-3.23-13.25a35.07,35.07,0,0,0-21.52,0l-3.28,12.69.42-.11a43,43,0,0,0-4.59,1.76l-11.65-7.08a35.06,35.06,0,0,0-15.22,15.21l6.65,11.29.23-.4a42.48,42.48,0,0,0-2,4.52L413.08,257a35.07,35.07,0,0,0,0,21.52l12.68,3.28c0-.14-.07-.28-.11-.42a42.06,42.06,0,0,0,1.76,4.58l-7.08,11.66a35.05,35.05,0,0,0,15.22,15.21l11.29-6.64-.4-.23a41.44,41.44,0,0,0,4.51,2l3.23,13.25a35.07,35.07,0,0,0,21.52,0L479,308.48l-.42.11a41,41,0,0,0,4.59-1.77l11.65,7.08A35.06,35.06,0,0,0,510,298.69l-6.65-11.29-.23.4a41.44,41.44,0,0,0,2-4.51Zm-52.65,8.16a19.71,19.71,0,1,1,19.71-19.71A19.71,19.71,0,0,1,465.74,288.21Z" fill="#0071f2" data-primary="true"/>
<path d="M480,427.7a35.07,35.07,0,0,0,0-21.52l-12.68-3.28c0,.14.07.28.11.42a42.06,42.06,0,0,0-1.76-4.58l7.08-11.66a35.11,35.11,0,0,0-15.22-15.22l-11.29,6.65.4.23a41.44,41.44,0,0,0-4.51-2l-3.23-13.25a35.07,35.07,0,0,0-21.52,0l-3.28,12.68.42-.11a43,43,0,0,0-4.59,1.76l-11.65-7.08A35.11,35.11,0,0,0,383.05,386l6.65,11.29.23-.4a41.44,41.44,0,0,0-2,4.51l-13.25,3.24a35,35,0,0,0,0,21.51l12.68,3.29c0-.15-.07-.28-.11-.42a43.7,43.7,0,0,0,1.76,4.58l-7.08,11.65a35.11,35.11,0,0,0,15.22,15.22l11.29-6.65-.4-.23a41.44,41.44,0,0,0,4.51,2l3.23,13.25a35.07,35.07,0,0,0,21.52,0l3.28-12.68-.42.11a43,43,0,0,0,4.59-1.76l11.65,7.08a35.11,35.11,0,0,0,15.22-15.22L465,435l-.23.41a42.48,42.48,0,0,0,2-4.52Zm-52.65,8.16a19.72,19.72,0,1,1,19.71-19.71A19.72,19.72,0,0,1,427.34,435.86Z" fill="#fff"/>
<path d="M723.17,592.76H616.57a1.48,1.48,0,0,1-1-.39l-82.08-74.19a1.49,1.49,0,0,1,2-2.21l81.65,73.8h106a1.5,1.5,0,1,1,0,3Z" fill="#2f2e41" data-secondary="true"/>
<path d="M480.48,141.86a1.45,1.45,0,0,1-1-.38L434.28,101.4H326.12a1.5,1.5,0,0,1,0-3H434.85a1.51,1.51,0,0,1,1,.38l45.63,40.46a1.49,1.49,0,0,1-1,2.61Z" fill="#2f2e41" data-secondary="true"/>
<path d="M121.84,467.29,116.94,598c7,3.16,20.75-4.79,20.75-4.79l24.05-128.5Z" fill="#f9b499"/>
<path d="M111.52,592.07l-1.3,18.28,55,1.57c5.31-19.85-27.5-17.12-27.5-17.12v-1.57A31.42,31.42,0,0,1,111.52,592.07Z" fill="#0071f2" data-primary="true"/>
<path d="M111.52,592.07l-1.3,18.28,55,1.57c5.31-19.85-27.5-17.12-27.5-17.12v-1.57A31.42,31.42,0,0,1,111.52,592.07Z" opacity="0.2"/>
<path d="M129.79,464.62l-12.36,143.2-21.29-.5S82.43,500.94,81.8,493s2.47-29.46,3-30.77Z" fill="#f9b499"/>
<path d="M128.86,474.49c-.08.89-.19,2-.31,3.59-.32,3.21-.74,7.7-1.28,13.23-1.06,11.17-2.54,26.65-4,43.65s-2.7,32.51-3.56,43.7c-.43,5.52-.79,10.11-1,13.25-.12,1.5-.31,2.7-.31,3.6a6.83,6.83,0,0,1-.18,1.26c0-.43,0-.85,0-1.28,0-.89.08-2,.16-3.61.19-3.2.46-7.73.77-13.26.72-11.19,1.84-26.67,3.33-43.72s3-32.5,4.27-43.65c.68-5.52,1.2-10.06,1.57-13.2.19-1.51.35-2.7.46-3.6a7.68,7.68,0,0,1,.22-1.24A6.08,6.08,0,0,1,128.86,474.49Z" fill="#f7a48b"/>
<path d="M94.89,598.12c-1.5.49-3.86,2-4,3.55h0a11.79,11.79,0,0,0,2,10.23c6.49,8.47,20.64,23.83,25,28.38a4,4,0,0,0,4.2,1,4.73,4.73,0,0,0,.82-.43,13.08,13.08,0,0,0,4.68-17.11l-9.54-18.71,0-4.26c-7.46,8.56-23-2.76-23-2.76Z" fill="#0071f2" data-primary="true"/>
<path d="M94.76,193s9.57-.85,11.58-.24a229.51,229.51,0,0,0,46.54,8.89A17.61,17.61,0,0,0,161,201a6.89,6.89,0,0,0,4.1-4.59c-.13,1.57-.13,3.14-.13,4.71l15,4.28c2.75-4.59,2.6-10.43,1.17-15.58s-4-9.92-6-14.89c-7.71-19.61-5.59-39.3-4.71-62.28l-74-.77C91.15,135.68,89.28,169.42,94.76,193Z" fill="#2f2e41" data-secondary="true"/>
<path d="M229.06,236.32l1.25,13.57,13.87-3.6s26.72,2,29.14,1.57a10,10,0,0,0,3-.77l.36-1.33a26.88,26.88,0,0,0,6.08-.21c2.95-.52.66-2,2.95-2.54a7.86,7.86,0,0,0,3-1.18l.13-2.28c2.87-1,0-3.91,0-3.91l-17.2-.5c-2.36-.93-14-.25-14.26-.79s6.56-1.57,10.26-2.1l.26-.05a2,2,0,0,0,1.43-2.51c-2.95-2.66-9.83-.44-11.95-.58s-12.08-1.09-14.4,0a8.8,8.8,0,0,0-3.49,4.52Z" fill="#f9b499"/>
<path d="M247.25,233.52a14.78,14.78,0,0,1,4.71,2,10.86,10.86,0,0,1,3.58,3.77,4,4,0,0,1,.69,2,19.31,19.31,0,0,1-1.11-1.79,12.34,12.34,0,0,0-3.54-3.44,37.73,37.73,0,0,0-6.52-2.84A5.08,5.08,0,0,1,247.25,233.52Z" fill="#f7a48b"/>
<path d="M271.09,243.7a10.34,10.34,0,0,1,4.26.75c1,.71,1.11,1.57,1,1.57a3.78,3.78,0,0,0-1.26-1.06,13.3,13.3,0,0,0-4.07-.51,26.14,26.14,0,0,1-6-.72A26.35,26.35,0,0,1,271.09,243.7Z" fill="#f7a48b"/>
<path d="M269,240.21a44.83,44.83,0,0,0,6.74.47,32,32,0,0,1,3.79.11,10,10,0,0,1,3,.79,3.88,3.88,0,0,1,1.72,1.27c.3.49.15.82.09.8s0-.3-.31-.64a4.26,4.26,0,0,0-1.68-1,17.49,17.49,0,0,0-6.63-.65,31.44,31.44,0,0,1-6.84-.68,11.78,11.78,0,0,1-2.74-.72A11.64,11.64,0,0,1,269,240.21Z" fill="#f7a48b"/>
<path d="M271.67,237.07c1.85,0,4.4.13,7.19.28,1.42.16,2.75.05,4,.16a15.11,15.11,0,0,1,3.26.54,4.76,4.76,0,0,1,2,1c.36.41.43.73.36.76s-.15-.25-.55-.55a4.89,4.89,0,0,0-2-.72,18.54,18.54,0,0,0-3.14-.36c-1.21-.11-2.56,0-4-.11-2.81-.16-5.37-.33-7.2-.49a13.43,13.43,0,0,1-3-.39A12.92,12.92,0,0,1,271.67,237.07Z" fill="#f7a48b"/>
<polygon points="118.72 163.45 112.31 162.82 109.84 174.75 114.92 190.31 123.92 194.1 140.25 197.72 156.39 197.38 159.84 190.62 147.1 173.09 118.72 163.45" fill="#f9b499"/>
<path d="M185.52,220.75a50.25,50.25,0,0,1,1.91,20.61c-1.25,12-7.18,15.6-7.18,15.6l3.07,71.28-78.35-13-9.55-95.39,21.72-33.9s24,7.06,33.51,7.26,8.68-5.06,8.68-5.06Z" fill="#e6e7e8"/>
<path d="M185.42,313.86s-2.12,14.36-2.89,34.07-22.46,125-22.46,125l-76.78-4.11S73,385.14,68.91,358.52s12.45-63.1,12.45-63.1Z" fill="#2f2e41" data-secondary="true"/>
<path d="M131.53,401.57c2.51,23.12,4.35,42,4.09,42s-2.39-18.74-4.91-41.86-4.32-42-4.08-42S129,378.45,131.53,401.57Z" opacity="0.2"/>
<path d="M131.77,278.92a3.64,3.64,0,0,1,1.46-2.17,4,4,0,0,1,3.86-.44,4.06,4.06,0,0,1-.42,7.66,4,4,0,0,1-3.77-.85,3.7,3.7,0,0,1-1.24-2.3,1.74,1.74,0,0,1,0-1c.06,0,.06.34.2.91a3.67,3.67,0,0,0,1.29,2,3.52,3.52,0,0,0,3.28.61,3.45,3.45,0,0,0,.35-6.47,3.52,3.52,0,0,0-3.33.27A3.72,3.72,0,0,0,132,279c-.21.54-.3.87-.3.87A1.51,1.51,0,0,1,131.77,278.92Z" fill="#263238"/>
<path d="M147.13,165.2l-.41,8.81s12.6,17.13,17.54,25.05,14,23.7,17.11,29.53c8.92,16.77-3.33,28.12-3.33,28.12l-.61,11.43L174.76,355l17.67-4.71-3.69-72.75h0a8.51,8.51,0,0,0,11.16,2.87c15.1-8.12,43-32.36,43-32.36l-9.42-17.95L198.9,245.44v-.84c0-.84-4.89-9.32-4.89-9.32l.26-4.52c.07-1.7-6.44-12.24-6.44-12.24s-1.61-17.37-4.06-24.58-10.94-17.86-13.14-19.12-20.11-5.32-20.11-5.32Z" fill="#0071f2" data-primary="true"/>
<path d="M191.58,265.75a34.05,34.05,0,0,1,.83-9.28,21.51,21.51,0,0,1,3.68-8.56,8.26,8.26,0,0,1,2.15-1.89,2.16,2.16,0,0,1,1-.39,11.94,11.94,0,0,0-2.73,2.58,23.4,23.4,0,0,0-3.39,8.42,40.46,40.46,0,0,0-1,9.11,35.07,35.07,0,0,1,0,3.83A13.31,13.31,0,0,1,191.58,265.75Z" fill="#263238"/>
<path d="M185.69,246.24a20.24,20.24,0,0,0,1-9.42,54.63,54.63,0,0,0-4.16-13.68c-2-5-4.12-10.65-6.74-16.31a53.56,53.56,0,0,0-4.51-7.85c-1.68-2.39-3.6-4.49-5.37-6.55a66.76,66.76,0,0,1-8.08-12c-2.16-3.51-4-6.24-5.31-8.12l-1.57-2.16a4.07,4.07,0,0,1-.5-.77,5,5,0,0,1,.61.7c.35.47.87,1.16,1.57,2.07,1.39,1.84,3.35,4.54,5.52,8A69.59,69.59,0,0,0,166.24,192a81.62,81.62,0,0,1,5.45,6.58,54.39,54.39,0,0,1,4.58,8c2.65,5.72,4.66,11.32,6.69,16.36A52.81,52.81,0,0,1,187,236.79a19.65,19.65,0,0,1-1.19,9.66,15.38,15.38,0,0,1-1.22,2.35,4.6,4.6,0,0,1-.57.73A25.28,25.28,0,0,0,185.69,246.24Z" fill="#fff" opacity="0.2"/>
<path d="M189.52,286.23c-.2-1.09-.45-2.48-.74-4.05-.59-3.41-1.49-8.12-2.24-13.38a73.41,73.41,0,0,1-.88-13.57c0-.87.09-1.65.16-2.34s.12-1.29.2-1.76a6.27,6.27,0,0,1,.31-1.49c.11,0-.18,2.15-.18,5.6a92.07,92.07,0,0,0,1.06,13.47c.79,5.15,1.51,9.81,2.06,13.39.24,1.73.42,3.13.52,4.09a6.87,6.87,0,0,1,0,1.57A6.64,6.64,0,0,1,189.52,286.23Z" fill="#263238"/>
<g opacity="0.3">
<path d="M199,245.47c-3,2.28-3.94,5.19-5,8.83s-1.39,7.45-2.26,11.14a1.55,1.55,0,0,1-.3.71c-.62.69-1.74.06-2.19-.74a8.43,8.43,0,0,1-.37-5.56,26.92,26.92,0,0,1,2.94-9,10.81,10.81,0,0,1,7-5.42"/>
</g>
<path d="M112.56,170.87c0,.91,12.69,29.92,17.65,43.32s11.61,45.06,13,57.37-4.29,80-4.29,80L70.78,328.17c2.19-19.52,20.7-58.79,20.7-58.79l-7.34-40.6s-15.75-50.33-12.56-54S100.27,166,100.27,166l4.45-4.84,9-1S112.6,170,112.56,170.87Z" fill="#0071f2" data-primary="true"/>
<g opacity="0.3">
<path d="M90.69,277a5.94,5.94,0,0,0,3.14,2c3.73,1.09,7.7-.1,11.58-1.48s7.85-2.83,11.73-4.4a23.53,23.53,0,0,0,5.49-2.81,42,42,0,0,1,3.89-3.14c4.18-2.45,11.44.08,15.83-1.95L142,263c-2.74-.66-4.1-.72-6.84-1.33-7-1.49-13.79,2.62-20.62,4.71-7.21,2.18-15,2.18-21.9,5.32a5,5,0,0,0-2.35,1.79A3.4,3.4,0,0,0,90.69,277Z"/>
</g>
<path d="M62.67,184.67c-2.92,6.38-4,17.37-4,17.37l-6.28,24.74L45.11,266a24.8,24.8,0,0,0,3.61,9.77c3.1,4.82,14.81,3.63,26.56,1.41s47.5-13,47.5-13l-2.73-19-38.2.51s14.07-31.24,12.08-42-12-32.29-13-32.76C77.15,169.23,65.59,178.3,62.67,184.67Z" fill="#0071f2" data-primary="true"/>
<path d="M101.14,167.63c.06.71.14,1.65.23,2.83.22,2.43.6,6,1.4,10.29a104,104,0,0,0,3.9,14.9c.94,2.73,2,5.58,3.31,8.45a16.34,16.34,0,0,0,1,2.11,3.1,3.1,0,0,0,1.85,1.11l4.71,1.48,1.57.47.71.22-.63.41-5.87,3.83.09-.49,15.94,23.66,4.72,7,1.22,1.9a3.14,3.14,0,0,1,.39.69,3.59,3.59,0,0,1-.48-.61l-1.34-1.84-4.8-6.91L113,213.64l-.19-.3.3-.19,5.86-3.83.09.61-1.57-.47L112.73,208a3.64,3.64,0,0,1-2.18-1.38,16.31,16.31,0,0,1-1.09-2.22c-1.27-2.9-2.37-5.76-3.3-8.52a101.25,101.25,0,0,1-3.77-15,94.8,94.8,0,0,1-1.17-10.37c-.11-1.27-.11-2.18-.11-2.84a4.1,4.1,0,0,1,0-1A8.19,8.19,0,0,1,101.14,167.63Z" fill="#0071f2" data-primary="true"/>
<path d="M101.14,167.63c.06.71.14,1.65.23,2.83.22,2.43.6,6,1.4,10.29a104,104,0,0,0,3.9,14.9c.94,2.73,2,5.58,3.31,8.45a16.34,16.34,0,0,0,1,2.11,3.1,3.1,0,0,0,1.85,1.11l4.71,1.48,1.57.47.71.22-.63.41-5.87,3.83.09-.49,15.94,23.66,4.72,7,1.22,1.9a3.14,3.14,0,0,1,.39.69,3.59,3.59,0,0,1-.48-.61l-1.34-1.84-4.8-6.91L113,213.64l-.19-.3.3-.19,5.86-3.83.09.61-1.57-.47L112.73,208a3.64,3.64,0,0,1-2.18-1.38,16.31,16.31,0,0,1-1.09-2.22c-1.27-2.9-2.37-5.76-3.3-8.52a101.25,101.25,0,0,1-3.77-15,94.8,94.8,0,0,1-1.17-10.37c-.11-1.27-.11-2.18-.11-2.84a4.1,4.1,0,0,1,0-1A8.19,8.19,0,0,1,101.14,167.63Z" fill="#fff" opacity="0.2"/>
<path d="M80,171.37a7.27,7.27,0,0,1,2.21.42A13.44,13.44,0,0,1,88.45,177a28.41,28.41,0,0,1,2.75,5,41.93,41.93,0,0,1,2.19,6.14,47.14,47.14,0,0,1,1.79,14.8A35.4,35.4,0,0,1,94,210.53c-.66,2.4-1.31,4.71-1.9,6.91-1.24,4.4-2.42,8.35-3.49,11.64s-2,5.92-2.77,7.71c-.39.88-.67,1.57-.94,2a2.73,2.73,0,0,1-.39.66,5.27,5.27,0,0,1,.27-.72c.22-.48.47-1.16.81-2.06.66-1.8,1.56-4.47,2.55-7.77s2.24-7.21,3.34-11.64,2.85-9.2,3-14.43a47.65,47.65,0,0,0-1.71-14.6,47,47,0,0,0-2.1-6.08A29.22,29.22,0,0,0,88,177.24a13.42,13.42,0,0,0-6-5.2,11.47,11.47,0,0,0-2.89-.62A2.38,2.38,0,0,1,80,171.37Z" opacity="0.2"/>
<path d="M75.17,243.72a28.11,28.11,0,0,1,7.39,2.21c-.07.16-3.38-.74-7.53-1.57s-7.54-1.23-7.54-1.43A26.48,26.48,0,0,1,75.17,243.72Z" opacity="0.2"/>
<path d="M219.35,258.45,163.64,322s-42.81-43.83-40.84-43.61c.88.09,55.85-58.51,55.85-58.51Z" fill="#455a64"/>
<path d="M120.58,247.52,123.16,264l6.38-1.46s15,1.18,18.06.39,10.57-1.71,10.57-1.71a4.3,4.3,0,0,0,.22,2.87,4.18,4.18,0,0,0,2.56,2l2.58-5.38c1.21,2.15,3,.15,3,.15l1.77-4.71c1.39,2.75,3.8.21,3.8.21l.52-6.29a10,10,0,0,0,3.14,2.08c1.45.45,1.57-2,1.57-2l-6.56-8.74-14.92-2.32-22.18,8.72Z" fill="#f9b499"/>
<path d="M161.66,241.28a22.76,22.76,0,0,1,2.93.83,36.34,36.34,0,0,1,3.48,1.29,17.73,17.73,0,0,1,3.26,1.84,2.41,2.41,0,0,1,1,1.46,8.8,8.8,0,0,1,.17,1.41,6.45,6.45,0,0,1-.09,2.8c-.08,0-.13-1-.4-2.73-.07-.41-.14-.9-.25-1.34a1.71,1.71,0,0,0-.81-1.08,20.09,20.09,0,0,0-3.15-1.73c-1.17-.52-2.34-.94-3.4-1.32s-2-.74-2.82-.94a7.78,7.78,0,0,0-2.68-.17A3.48,3.48,0,0,1,161.66,241.28Z" fill="#f7a48b"/>
<path d="M160,246.62c1.56.44,3.76.83,6.13,1.68a4.37,4.37,0,0,1,1.73.91,5.46,5.46,0,0,1,.77,1.57,5.88,5.88,0,0,1,.45,2.93,9.48,9.48,0,0,1-.59,1.85,5.06,5.06,0,0,1-.29.66,2.32,2.32,0,0,1,0-.72,9.42,9.42,0,0,0,.36-1.86,8.8,8.8,0,0,0-1.24-4,3.77,3.77,0,0,0-1.46-.72c-2.29-.82-4.46-1.29-6-1.85a6.6,6.6,0,0,1-2.37-1.18A22.41,22.41,0,0,1,160,246.62Z" fill="#f7a48b"/>
<path d="M164.05,259.28a3.45,3.45,0,0,0,.18-1.88,2.36,2.36,0,0,0-1.46-1.57,7.45,7.45,0,0,0-2.38-.46l-2.09-.19c-.6-.06-1.1-.17-1.4-.17s-.43,0-.47,0,.08-.33.45-.33a8.54,8.54,0,0,1,1.43,0h2.11a7.69,7.69,0,0,1,2.64.47,2.92,2.92,0,0,1,1.8,2.09,3.46,3.46,0,0,1-.38,2.21,5.16,5.16,0,0,1-1.2,1.57A10.36,10.36,0,0,1,164.05,259.28Z" fill="#f7a48b"/>
<path d="M94.42,129.15c1.61,10.58,7.74,13.43,16.77,19.16l55.89-23.56c4.43-4.48,6.67-21.72,1.85-35-2.36-6.64-4.38-13.88-10.21-17.89a37,37,0,0,0-14.94-6.42c-10.36-1.34-19.87-.35-28.62,5.37C105.33,77.2,102,88.92,98.66,100.2,96.6,107.19,93.33,122,94.42,129.15Z" fill="#2f2e41" data-secondary="true"/>
<path d="M109.37,87.76l-1,88c18.35,8.69,33.25,11.28,38.55-3.28l.55-12.22c.4-5.42.4-5.69.4-5.69s14.14-1.73,17.93-19.87c1.9-9,2.1-23.91,1.9-36.13-.18-11-6.79-24.77-17.78-24.12l-34.56,7A6.45,6.45,0,0,0,109.37,87.76Z" fill="#f9b499"/>
<path d="M147.57,159.07c-18.35.85-23.8-12.22-23.8-12.22a46.58,46.58,0,0,0,24.14,7.68Z" fill="#f7a48b"/>
<path d="M150.25,71.58a51.58,51.58,0,0,0-26.95-1.11C117,71.91,110.51,75,107.59,80.75c-4.21,8.34.57,18.71-2,27.68a6.64,6.64,0,0,0,7.85.45,13,13,0,0,0,5-6.61l-.67,3.72c5.54,1,11.21-1.72,15.23-5.67s6.68-9,9.27-14A24.63,24.63,0,0,1,136,100a6.69,6.69,0,0,0,5.84-1.35,14.77,14.77,0,0,0,3.77-4.89,40.5,40.5,0,0,0,4.71-21.47" fill="#2f2e41" data-secondary="true"/>
<path d="M149.59,72.82h0v-.41C149.59,72.55,149.58,72.7,149.59,72.82Z" fill="#263238"/>
<path d="M145.93,100.65a9.13,9.13,0,0,1,3.95.49,4.4,4.4,0,0,0,3.83-.47A4.72,4.72,0,0,0,155,98.33a54.66,54.66,0,0,0,2.22-18.47,56.26,56.26,0,0,1,3.28,10.62,20,20,0,0,1-.87,11l0,0a1.58,1.58,0,0,0,2.22.14A3.77,3.77,0,0,0,163,99.44a27.68,27.68,0,0,0,.21-9.26c1.54,3.37,1.84,7.19,2.53,10.84s2,7.44,4.9,9.73a48.77,48.77,0,0,0,.75-14,42.35,42.35,0,0,0-3.14-11.43,33.1,33.1,0,0,0-6.49-11c-5-5.16-7.41-3.33-11-1.83l-1.15.37A52.22,52.22,0,0,1,145.93,100.65Z" fill="#2f2e41" data-secondary="true"/>
<path d="M132.68,193.86c-5.39,3.57-11,5.28-16.27,7.32a37.79,37.79,0,0,1-11.79-13.12c.68,3,1.5,6,2.46,8.91l-1.58,1.3a75.19,75.19,0,0,1-8-38.87l11.6-62,16-.85c3.11,12-6.5,24.34-4.27,36.52.93,5,3.82,9.63,4,14.74.15,4.84-2.18,9.45-2.08,14.26.17,5.7,3.56,10.7,6.45,15.61S134.55,188.5,132.68,193.86Z" fill="#2f2e41" data-secondary="true"/>
<rect x="665" y="345.9" width="105.79" height="105.79" fill="#0071f2" data-primary="true"/>
<path d="M701.34,395.26a3.17,3.17,0,0,1,.49-1.73,3.37,3.37,0,0,1,1.45-1.24,6.34,6.34,0,0,1,4.74,0,3.46,3.46,0,0,1,1.46,1.24,3.24,3.24,0,0,1,.48,1.73,3,3,0,0,1-.48,1.69,3.21,3.21,0,0,1-1.26,1.13,3.24,3.24,0,0,1,2,3.13,3.61,3.61,0,0,1-.6,2.08,3.83,3.83,0,0,1-1.66,1.35,6.14,6.14,0,0,1-4.71,0,3.8,3.8,0,0,1-1.65-1.35,3.61,3.61,0,0,1-.6-2.08,3.43,3.43,0,0,1,.54-1.92,3.28,3.28,0,0,1,1.5-1.21A3,3,0,0,1,701.34,395.26Zm2.69,4.39a1.8,1.8,0,0,0-.62,1.46,1.83,1.83,0,0,0,.6,1.42,2.34,2.34,0,0,0,1.64.55,2.26,2.26,0,0,0,1.63-.56,1.83,1.83,0,0,0,.59-1.41,1.8,1.8,0,0,0-.61-1.45,2.43,2.43,0,0,0-1.61-.51A2.55,2.55,0,0,0,704,399.65Zm3-5.37a2.32,2.32,0,0,0-2.8,0,1.71,1.71,0,0,0-.52,1.35,1.61,1.61,0,0,0,.54,1.26,2.23,2.23,0,0,0,2.75,0,1.6,1.6,0,0,0,.55-1.27A1.72,1.72,0,0,0,707.06,394.28Z" fill="#fff"/>
<path d="M720.78,394.19H715.1v3a2.71,2.71,0,0,1,1-.74,3.77,3.77,0,0,1,1.46-.29,3.94,3.94,0,0,1,2.29.62,3.5,3.5,0,0,1,1.3,1.56,5.37,5.37,0,0,1,.4,2,4.54,4.54,0,0,1-1.15,3.24,4.23,4.23,0,0,1-3.26,1.23,4.83,4.83,0,0,1-3.19-1,3.8,3.8,0,0,1-1.35-2.61H715a1.93,1.93,0,0,0,.71,1.12,2.27,2.27,0,0,0,1.41.42,1.9,1.9,0,0,0,1.56-.65,2.62,2.62,0,0,0,.52-1.71,2.32,2.32,0,0,0-.53-1.66,2.06,2.06,0,0,0-1.57-.57,1.92,1.92,0,0,0-1.92,1.35h-2.35V392h7.92Z" fill="#fff"/>
<path d="M724,393.12a3.2,3.2,0,1,1-.78,2.09A2.78,2.78,0,0,1,724,393.12Zm1,2.09q0,1.38,1,1.38a.89.89,0,0,0,.74-.34,1.75,1.75,0,0,0,.26-1c0-.91-.34-1.37-1-1.37S725,394.3,725,395.21Zm9.43-2.63-6.88,12.26h-2.38L732,392.58Zm-2.77,7.52a2.77,2.77,0,0,1,2-.74,2.71,2.71,0,0,1,2,.74,3.27,3.27,0,0,1,0,4.19,2.72,2.72,0,0,1-2,.75,2.75,2.75,0,0,1-2-.75,2.81,2.81,0,0,1-.77-2.1A2.75,2.75,0,0,1,731.64,400.1Zm1,2.09q0,1.38,1,1.38t1-1.38c0-.91-.33-1.36-1-1.36S732.63,401.28,732.63,402.19Z" fill="#fff"/>
<path d="M717.88,356.33c-24.59,0-44.52,19.48-44.52,43.52s19.93,43.51,44.52,43.51,44.52-19.48,44.52-43.51S742.47,356.33,717.88,356.33Zm0,67.11c-13.61,0-24.64-10.56-24.64-23.59s11-23.6,24.64-23.6,24.64,10.56,24.64,23.6S731.49,423.44,717.88,423.44Z" fill="#2f2e41" data-secondary="true"/>
<path d="M762.4,399.85c0-24-19.93-43.52-44.52-43.52v19.92c13.61,0,24.64,10.56,24.64,23.6Z" fill="#fff"/>
<g id="ee08b86e-f364-4321-bcda-cc8a5d353e47" data-name="freepik--Chart--inject-89">
<polygon points="448.4 627.47 296.75 627.47 296.75 507.37 448.49 507.08 448.4 627.47" fill="#fafafa"/>
<path d="M448.4,627.47V507.08l.15.13L297,507.52h-.27l.2-.15v120.1l-.17-.13,151.67.13-151.67.14h-.15V507.21h.42L448.58,507h.13v.12C448.5,579.29,448.4,626.35,448.4,627.47Z" fill="#2f2e41" data-secondary="true"/>
<path d="M438.2,616.2h-7.92l-21.65.07H306.21v-.2c0-20.44,0-38,.08-50.49v50.49l-.2-.19H408.31L430,616h7.4Z" fill="#2f2e41" data-secondary="true"/>
<rect x="317.11" y="598.83" width="13.31" height="13.33" fill="#0071f2" data-primary="true"/>
<rect x="336.63" y="589.29" width="13.31" height="22.87" fill="#0071f2" data-primary="true"/>
<rect x="356.24" y="578.47" width="13.31" height="33.69" fill="#0071f2" data-primary="true"/>
<rect x="375.23" y="566.41" width="13.31" height="45.75" fill="#0071f2" data-primary="true"/>
<rect x="394.66" y="550.97" width="13.31" height="61.18" fill="#0071f2" data-primary="true"/>
<rect x="413.96" y="539.2" width="13.31" height="72.32" fill="#0071f2" data-primary="true"/>
<g opacity="0.5">
<rect x="336.63" y="589.29" width="13.31" height="22.87" fill="#fff"/>
</g>
<g opacity="0.5">
<rect x="413.96" y="539.2" width="13.31" height="72.32" fill="#fff"/>
</g>
<path d="M317.11,585.15l.18-.12.52-.37,2-1.35,7.59-5L353.85,561l.3-.2v6.33l-.3-.17,10.41-7L401,535.35,412.15,528l3-2,.79-.5a1.22,1.22,0,0,1,.29-.17l-.26.2-.77.54-3,2-11.1,7.61-36.66,24.68-10.41,7-.32.21v-6.36l.3.17c-10.63,6.94-19.92,12.92-26.5,17.16l-7.69,5-2.06,1.31-.54.32C317.18,585.12,317.12,585.16,317.11,585.15Z" fill="#2f2e41" data-secondary="true"/>
<path d="M416.32,530.92a6.43,6.43,0,0,1-.15-1.64v-4l.21.21H411.5a7.86,7.86,0,0,1-1.81-.15,7.86,7.86,0,0,1,1.81-.15h5.08v4.23A8.74,8.74,0,0,1,416.32,530.92Z" fill="#2f2e41" data-secondary="true"/>
<path d="M369.08,523c0,.12-11.64.21-26,.21s-26-.09-26-.21,11.64-.21,26-.21S369.08,522.93,369.08,523Z" fill="#2f2e41" data-secondary="true"/>
<path d="M336.16,527.79c0,.12-4.36.21-9.75.21s-9.74-.09-9.74-.21,4.36-.21,9.74-.21S336.16,527.68,336.16,527.79Z" fill="#2f2e41" data-secondary="true"/>
<path d="M346.53,527.79a33.86,33.86,0,0,1-7.53,0A33.86,33.86,0,0,1,346.53,527.79Z" fill="#2f2e41" data-secondary="true"/>
<g opacity="0.3">
<rect x="375.23" y="566.41" width="13.31" height="45.75" fill="#fff"/>
</g>
</g>
</svg>